<?xml version="1.0" encoding="UTF-8" standalone="no"?>
<!DOCTYPE svg PUBLIC "-//W3C//DTD SVG 1.1//EN" "http://www.w3.org/Graphics/SVG/1.1/DTD/svg11.dtd">
<svg width="100%" height="100%" viewBox="0 0 268 52" version="1.1" xmlns="http://www.w3.org/2000/svg" xmlns:xlink="http://www.w3.org/1999/xlink" xml:space="preserve" xmlns:serif="http://www.serif.com/" style="fill-rule:evenodd;clip-rule:evenodd;stroke-linejoin:round;stroke-miterlimit:2;">
    <g transform="matrix(1,0,0,1,-7513,-1605.2)">
        <g id="buttonSoup_logo" transform="matrix(0.594486,0,0,0.431127,3046.12,955.899)">
            <g>
                <rect x="7513.85" y="1506.06" width="450" height="120" style="fill:none;"/>
                <g transform="matrix(1.68212,0,0,2.3195,-3961,-1798.81)">
                    <path d="M6830.17,1462.22L6830.17,1464.58L6823.11,1464.58L6823.11,1425.42L6830.24,1425.42L6830.24,1440.67C6830.92,1440.03 6831.71,1439.48 6832.59,1439.03C6834.11,1438.26 6835.8,1437.88 6837.66,1437.88C6840.08,1437.88 6842.24,1438.48 6844.16,1439.68C6846.07,1440.88 6847.58,1442.51 6848.68,1444.56C6849.78,1446.61 6850.33,1448.94 6850.33,1451.54C6850.33,1454.11 6849.78,1456.42 6848.68,1458.47C6847.58,1460.52 6846.07,1462.14 6844.16,1463.34C6842.24,1464.53 6840.08,1465.12 6837.66,1465.12C6835.77,1465.12 6834.07,1464.73 6832.55,1463.94C6831.65,1463.47 6830.86,1462.9 6830.17,1462.22ZM6836.44,1458.57C6837.74,1458.57 6838.89,1458.27 6839.88,1457.67C6840.87,1457.07 6841.65,1456.24 6842.22,1455.17C6842.79,1454.11 6843.07,1452.88 6843.07,1451.5C6843.07,1450.12 6842.79,1448.89 6842.22,1447.83C6841.65,1446.77 6840.87,1445.93 6839.87,1445.33C6838.88,1444.73 6837.73,1444.43 6836.43,1444.43C6835.13,1444.43 6833.97,1444.73 6832.97,1445.33C6831.96,1445.93 6831.18,1446.76 6830.63,1447.82C6830.08,1448.88 6829.8,1450.11 6829.8,1451.5C6829.8,1452.89 6830.08,1454.12 6830.64,1455.18C6831.19,1456.25 6831.97,1457.08 6832.98,1457.67C6833.99,1458.27 6835.14,1458.57 6836.44,1458.57ZM6864.92,1465.15C6862.63,1465.15 6860.58,1464.66 6858.79,1463.67C6857,1462.69 6855.6,1461.33 6854.59,1459.6C6853.59,1457.86 6853.08,1455.86 6853.08,1453.6L6853.08,1438.42L6860.2,1438.42L6860.2,1453.42C6860.2,1454.51 6860.39,1455.43 6860.76,1456.2C6861.13,1456.97 6861.67,1457.57 6862.38,1457.98C6863.1,1458.39 6863.95,1458.6 6864.93,1458.6C6866.41,1458.6 6867.56,1458.14 6868.38,1457.24C6869.21,1456.34 6869.62,1455.07 6869.62,1453.42L6869.62,1438.42L6876.74,1438.42L6876.74,1453.6C6876.74,1455.89 6876.24,1457.9 6875.24,1459.64C6874.23,1461.37 6872.85,1462.72 6871.07,1463.69C6869.29,1464.66 6867.24,1465.15 6864.92,1465.15ZM6885,1444.65L6878.91,1444.65L6878.91,1438.42L6885,1438.42L6885,1427.56L6892.12,1427.56L6892.12,1438.42L6901.2,1438.42L6901.2,1427.56L6908.32,1427.56L6908.32,1438.42L6914.41,1438.42L6914.41,1444.65L6908.32,1444.65L6908.32,1464.58L6901.2,1464.58L6901.2,1444.65L6892.12,1444.65L6892.12,1464.58L6885,1464.58L6885,1444.65ZM6928.41,1465.15C6925.79,1465.15 6923.41,1464.55 6921.3,1463.34C6919.18,1462.13 6917.51,1460.48 6916.27,1458.41C6915.03,1456.33 6914.41,1454.01 6914.41,1451.45C6914.41,1448.88 6915.03,1446.58 6916.26,1444.54C6917.49,1442.5 6919.17,1440.87 6921.28,1439.66C6923.4,1438.45 6925.77,1437.85 6928.4,1437.85C6931.06,1437.85 6933.44,1438.45 6935.55,1439.64C6937.66,1440.84 6939.34,1442.46 6940.57,1444.52C6941.81,1446.57 6942.43,1448.88 6942.43,1451.45C6942.43,1454.01 6941.81,1456.33 6940.58,1458.41C6939.35,1460.48 6937.68,1462.13 6935.57,1463.34C6933.45,1464.55 6931.07,1465.15 6928.41,1465.15ZM6928.4,1458.52C6929.74,1458.52 6930.91,1458.22 6931.94,1457.62C6932.96,1457.03 6933.75,1456.19 6934.31,1455.12C6934.88,1454.05 6935.16,1452.83 6935.16,1451.46C6935.16,1450.09 6934.87,1448.88 6934.28,1447.84C6933.7,1446.79 6932.91,1445.98 6931.91,1445.38C6930.91,1444.78 6929.74,1444.49 6928.4,1444.49C6927.1,1444.49 6925.94,1444.79 6924.92,1445.39C6923.9,1445.99 6923.11,1446.81 6922.54,1447.85C6921.97,1448.89 6921.68,1450.1 6921.68,1451.47C6921.68,1452.84 6921.97,1454.05 6922.54,1455.12C6923.11,1456.19 6923.9,1457.03 6924.92,1457.62C6925.94,1458.22 6927.1,1458.52 6928.4,1458.52ZM6952.88,1449.59L6952.88,1464.58L6945.76,1464.58L6945.76,1438.42L6952.88,1438.42L6952.88,1440.89C6953.53,1440.22 6954.28,1439.65 6955.13,1439.18C6956.7,1438.31 6958.47,1437.88 6960.46,1437.88C6962.39,1437.88 6964.11,1438.36 6965.62,1439.31C6967.13,1440.27 6968.32,1441.52 6969.19,1443.06C6970.06,1444.61 6970.49,1446.26 6970.49,1448.01L6970.49,1464.58L6963.37,1464.58L6963.37,1449.59C6963.37,1448.03 6962.88,1446.76 6961.9,1445.78C6960.93,1444.8 6959.68,1444.31 6958.16,1444.31C6957.13,1444.31 6956.21,1444.53 6955.42,1444.97C6954.62,1445.41 6954,1446.04 6953.56,1446.84C6953.11,1447.63 6952.88,1448.55 6952.88,1449.59ZM6986.79,1465.15C6983.72,1465.15 6981.1,1464.62 6978.92,1463.57C6976.74,1462.52 6974.77,1460.95 6973.01,1458.85L6977.87,1453.99C6979.01,1455.46 6980.31,1456.61 6981.78,1457.42C6983.25,1458.23 6985.05,1458.64 6987.17,1458.64C6989.11,1458.64 6990.65,1458.26 6991.77,1457.49C6992.89,1456.73 6993.45,1455.68 6993.45,1454.34C6993.45,1453.2 6993.13,1452.26 6992.48,1451.53C6991.83,1450.81 6990.97,1450.19 6989.91,1449.7C6988.84,1449.2 6987.67,1448.74 6986.39,1448.32C6985.11,1447.9 6983.82,1447.42 6982.55,1446.88C6981.27,1446.33 6980.1,1445.65 6979.03,1444.83C6977.97,1444.01 6977.11,1442.97 6976.46,1441.69C6975.81,1440.41 6975.49,1438.8 6975.49,1436.86C6975.49,1434.56 6976.05,1432.59 6977.17,1430.96C6978.3,1429.34 6979.83,1428.09 6981.78,1427.23C6983.73,1426.36 6985.94,1425.93 6988.4,1425.93C6990.99,1425.93 6993.34,1426.41 6995.43,1427.38C6997.53,1428.34 6999.24,1429.6 7000.57,1431.16L6995.69,1436.02C6994.58,1434.81 6993.44,1433.91 6992.26,1433.33C6991.08,1432.74 6989.74,1432.45 6988.26,1432.45C6986.57,1432.45 6985.24,1432.78 6984.27,1433.43C6983.31,1434.09 6982.82,1435.03 6982.82,1436.24C6982.82,1437.3 6983.15,1438.15 6983.8,1438.8C6984.45,1439.45 6985.31,1440.01 6986.37,1440.47C6987.44,1440.93 6988.61,1441.38 6989.89,1441.82C6991.18,1442.25 6992.45,1442.75 6993.73,1443.3C6995.01,1443.86 6996.18,1444.57 6997.25,1445.43C6998.31,1446.3 6999.17,1447.41 6999.82,1448.75C7000.47,1450.1 7000.8,1451.77 7000.8,1453.78C7000.8,1457.31 6999.54,1460.08 6997.04,1462.11C6994.54,1464.14 6991.13,1465.15 6986.79,1465.15ZM7016.27,1465.15C7013.65,1465.15 7011.27,1464.55 7009.16,1463.34C7007.04,1462.13 7005.36,1460.48 7004.13,1458.41C7002.89,1456.33 7002.27,1454.01 7002.27,1451.45C7002.27,1448.88 7002.89,1446.58 7004.12,1444.54C7005.35,1442.5 7007.03,1440.87 7009.14,1439.66C7011.26,1438.45 7013.63,1437.85 7016.26,1437.85C7018.91,1437.85 7021.3,1438.45 7023.41,1439.64C7025.52,1440.84 7027.2,1442.46 7028.43,1444.52C7029.67,1446.57 7030.29,1448.88 7030.29,1451.45C7030.29,1454.01 7029.67,1456.33 7028.44,1458.41C7027.21,1460.48 7025.53,1462.13 7023.42,1463.34C7021.31,1464.55 7018.93,1465.15 7016.27,1465.15ZM7016.26,1458.52C7017.6,1458.52 7018.77,1458.22 7019.79,1457.62C7020.81,1457.03 7021.61,1456.19 7022.17,1455.12C7022.74,1454.05 7023.02,1452.83 7023.02,1451.46C7023.02,1450.09 7022.73,1448.88 7022.14,1447.84C7021.56,1446.79 7020.77,1445.98 7019.77,1445.38C7018.77,1444.78 7017.6,1444.49 7016.26,1444.49C7014.96,1444.49 7013.8,1444.79 7012.78,1445.39C7011.76,1445.99 7010.97,1446.81 7010.4,1447.85C7009.83,1448.89 7009.54,1450.1 7009.54,1451.47C7009.54,1452.84 7009.83,1454.05 7010.4,1455.12C7010.97,1456.19 7011.76,1457.03 7012.78,1457.62C7013.8,1458.22 7014.96,1458.52 7016.26,1458.52ZM7044.79,1465.15C7042.5,1465.15 7040.46,1464.66 7038.66,1463.67C7036.87,1462.69 7035.47,1461.33 7034.47,1459.6C7033.46,1457.86 7032.96,1455.86 7032.96,1453.6L7032.96,1438.42L7040.08,1438.42L7040.08,1453.42C7040.08,1454.51 7040.26,1455.43 7040.63,1456.2C7041,1456.97 7041.54,1457.57 7042.26,1457.98C7042.97,1458.39 7043.82,1458.6 7044.81,1458.6C7046.29,1458.6 7047.44,1458.14 7048.26,1457.24C7049.08,1456.34 7049.49,1455.07 7049.49,1453.42L7049.49,1438.42L7056.61,1438.42L7056.61,1453.6C7056.61,1455.89 7056.11,1457.9 7055.11,1459.64C7054.11,1461.37 7052.72,1462.72 7050.94,1463.69C7049.17,1464.66 7047.12,1465.15 7044.79,1465.15ZM7068.08,1462.3L7068.08,1475.55L7061.03,1475.55L7061.03,1438.42L7068.15,1438.42L7068.15,1440.75C7068.83,1440.09 7069.62,1439.52 7070.51,1439.06C7072.02,1438.27 7073.71,1437.88 7075.57,1437.88C7077.99,1437.88 7080.16,1438.48 7082.07,1439.68C7083.99,1440.88 7085.49,1442.51 7086.6,1444.56C7087.7,1446.61 7088.25,1448.94 7088.25,1451.54C7088.25,1454.11 7087.7,1456.42 7086.6,1458.47C7085.49,1460.52 7083.99,1462.14 7082.07,1463.34C7080.16,1464.53 7077.99,1465.12 7075.57,1465.12C7073.69,1465.12 7071.98,1464.74 7070.47,1463.97C7069.56,1463.52 7068.77,1462.96 7068.08,1462.3ZM7074.33,1458.57C7075.64,1458.57 7076.79,1458.27 7077.79,1457.67C7078.78,1457.07 7079.57,1456.24 7080.14,1455.17C7080.7,1454.1 7080.99,1452.88 7080.99,1451.5C7080.99,1450.11 7080.7,1448.88 7080.14,1447.82C7079.57,1446.76 7078.78,1445.93 7077.79,1445.33C7076.8,1444.73 7075.65,1444.43 7074.35,1444.43C7073.05,1444.43 7071.9,1444.73 7070.89,1445.33C7069.89,1445.92 7069.11,1446.76 7068.55,1447.82C7067.99,1448.88 7067.72,1450.11 7067.72,1451.5C7067.72,1452.88 7067.99,1454.11 7068.54,1455.17C7069.09,1456.24 7069.87,1457.07 7070.88,1457.67C7071.89,1458.27 7073.04,1458.57 7074.33,1458.57Z"/>
                </g>
            </g>
        </g>
    </g>
</svg>
