<?xml version="1.0" encoding="UTF-8" standalone="no"?>
<!DOCTYPE svg PUBLIC "-//W3C//DTD SVG 1.1//EN" "http://www.w3.org/Graphics/SVG/1.1/DTD/svg11.dtd">
<svg width="100%" height="100%" viewBox="0 0 16 16" version="1.1" xmlns="http://www.w3.org/2000/svg" xmlns:xlink="http://www.w3.org/1999/xlink" xml:space="preserve" xmlns:serif="http://www.serif.com/" style="fill-rule:evenodd;clip-rule:evenodd;stroke-linejoin:round;stroke-miterlimit:2;">
    <g transform="matrix(1,0,0,1,-95,-755)">
        <g id="Artboard14" transform="matrix(0.931046,0,0,0.931046,6.55065,52.0605)">
            <rect x="95" y="755" width="17.185" height="17.185" style="fill:none;"/>
            <g transform="matrix(0.0456198,0,0,0.0456198,79.9863,649.689)">
                <g>
                    <g transform="matrix(1.37974,0,0,1.37974,-392.937,-1579.68)">
                        <g transform="matrix(1,0,0,1,242.96,456.532)">
                            <circle cx="416.869" cy="2535.34" r="26.316"/>
                        </g>
                        <g transform="matrix(1,0,0,1,242.96,381.834)">
                            <circle cx="416.869" cy="2535.34" r="26.316"/>
                        </g>
                    </g>
                    <g transform="matrix(0.827406,0,0,0.827406,-465.805,1072.09)">
                        <path d="M1188.37,1517.26C1301.31,1517.26 1393.01,1608.96 1393.01,1721.9C1393.01,1834.85 1301.31,1926.55 1188.37,1926.55C1075.42,1926.55 983.722,1834.85 983.722,1721.9C983.722,1608.96 1075.42,1517.26 1188.37,1517.26ZM1188.37,1556.43C1097.04,1556.43 1022.89,1630.58 1022.89,1721.9C1022.89,1813.23 1097.04,1887.38 1188.37,1887.38C1279.69,1887.38 1353.84,1813.23 1353.84,1721.9C1353.84,1630.58 1279.69,1556.43 1188.37,1556.43Z"/>
                    </g>
                </g>
            </g>
        </g>
    </g>
</svg>
